# xmcd CD database file
#
# Track frame offsets:
#	150
#	14015
#	24127
#	43427
#	55110
#	63005
#	76720
#	82227
#	103377
#	120012
#	136702
#	150202
#	167625
#	179935
#	200797
#	222870
#	247527
#	264292
#	280412
#
# Disc length: 3950 seconds
#
# Revision: 0
# Processed by: cddbd v1.5PL3 Copyright (c) Steve Scherf et al.
# Submitted via: CDex 1.51
#
DISCID=fa0f6c13
DTITLE=Ken Colyer - The Unknown New Orleans Sessions
DYEAR=1900
DGENRE=Jazz
TTITLE0=Shine
TTITLE1=Just a Closer Walk with Thee
TTITLE2=Up A Lazy River
TTITLE3=Dippermouth Blues
TTITLE4=Song of the Islands
TTITLE5=Savoy Blues
TTITLE6=Silver Dollar
TTITLE7=Tishomingo Blues No.2
TTITLE8=Fidgety Feet
TTITLE9=In the Evening...
TTITLE10=Make Me a Pallet...
TTITLE11=Blues No.2
TTITLE12=Willie The Weeper
TTITLE13=Tishomingo Blues No.1
TTITLE14=Panama
TTITLE15=Blues No.I
TTITLE16=High Society
TTITLE17=Indiana
TTITLE18=The World is Waiting...
EXTD=
EXTT0=
EXTT1=
EXTT2=
EXTT3=
EXTT4=
EXTT5=
EXTT6=
EXTT7=
EXTT8=
EXTT9=
EXTT10=
EXTT11=
EXTT12=
EXTT13=
EXTT14=
EXTT15=
EXTT16=
EXTT17=
EXTT18=
PLAYORDER=
